<?xml version="1.0" standalone="no"?>
<svg id="mermaid-svg-1759919722491" width="100%" xmlns="http://www.w3.org/2000/svg" style="max-width: 2990px;" viewBox="100 -61 2990 891" role="graphics-document document" aria-roledescription="timeline"><style>#mermaid-svg-1759919722491{font-family:"trebuchet ms",verdana,arial,sans-serif;font-size:16px;fill:#000000;}@keyframes edge-animation-frame{from{stroke-dashoffset:0;}}@keyframes dash{to{stroke-dashoffset:0;}}#mermaid-svg-1759919722491 .edge-animation-slow{stroke-dasharray:9,5!important;stroke-dashoffset:900;animation:dash 50s linear infinite;stroke-linecap:round;}#mermaid-svg-1759919722491 .edge-animation-fast{stroke-dasharray:9,5!important;stroke-dashoffset:900;animation:dash 20s linear infinite;stroke-linecap:round;}#mermaid-svg-1759919722491 .error-icon{fill:#552222;}#mermaid-svg-1759919722491 .error-text{fill:#552222;stroke:#552222;}#mermaid-svg-1759919722491 .edge-thickness-normal{stroke-width:1px;}#mermaid-svg-1759919722491 .edge-thickness-thick{stroke-width:3.5px;}#mermaid-svg-1759919722491 .edge-pattern-solid{stroke-dasharray:0;}#mermaid-svg-1759919722491 .edge-thickness-invisible{stroke-width:0;fill:none;}#mermaid-svg-1759919722491 .edge-pattern-dashed{stroke-dasharray:3;}#mermaid-svg-1759919722491 .edge-pattern-dotted{stroke-dasharray:2;}#mermaid-svg-1759919722491 .marker{fill:#000000;stroke:#000000;}#mermaid-svg-1759919722491 .marker.cross{stroke:#000000;}#mermaid-svg-1759919722491 svg{font-family:"trebuchet ms",verdana,arial,sans-serif;font-size:16px;}#mermaid-svg-1759919722491 p{margin:0;}#mermaid-svg-1759919722491 .edge{stroke-width:3;}#mermaid-svg-1759919722491 .section--1 rect,#mermaid-svg-1759919722491 .section--1 path,#mermaid-svg-1759919722491 .section--1 circle,#mermaid-svg-1759919722491 .section--1 path{fill:hsl(78.1578947368, 58.4615384615%, 64.5098039216%);}#mermaid-svg-1759919722491 .section--1 text{fill:black;}#mermaid-svg-1759919722491 .node-icon--1{font-size:40px;color:black;}#mermaid-svg-1759919722491 .section-edge--1{stroke:hsl(78.1578947368, 58.4615384615%, 64.5098039216%);}#mermaid-svg-1759919722491 .edge-depth--1{stroke-width:17;}#mermaid-svg-1759919722491 .section--1 line{stroke:hsl(258.1578947368, 58.4615384615%, 64.5098039216%);stroke-width:3;}#mermaid-svg-1759919722491 .lineWrapper line{stroke:black;}#mermaid-svg-1759919722491 .disabled,#mermaid-svg-1759919722491 .disabled circle,#mermaid-svg-1759919722491 .disabled text{fill:lightgray;}#mermaid-svg-1759919722491 .disabled text{fill:#efefef;}#mermaid-svg-1759919722491 .section-0 rect,#mermaid-svg-1759919722491 .section-0 path,#mermaid-svg-1759919722491 .section-0 circle,#mermaid-svg-1759919722491 .section-0 path{fill:hsl(98.961038961, 100%, 74.9019607843%);}#mermaid-svg-1759919722491 .section-0 text{fill:black;}#mermaid-svg-1759919722491 .node-icon-0{font-size:40px;color:black;}#mermaid-svg-1759919722491 .section-edge-0{stroke:hsl(98.961038961, 100%, 74.9019607843%);}#mermaid-svg-1759919722491 .edge-depth-0{stroke-width:14;}#mermaid-svg-1759919722491 .section-0 line{stroke:hsl(278.961038961, 100%, 74.9019607843%);stroke-width:3;}#mermaid-svg-1759919722491 .lineWrapper line{stroke:black;}#mermaid-svg-1759919722491 .disabled,#mermaid-svg-1759919722491 .disabled circle,#mermaid-svg-1759919722491 .disabled text{fill:lightgray;}#mermaid-svg-1759919722491 .disabled text{fill:#efefef;}#mermaid-svg-1759919722491 .section-1 rect,#mermaid-svg-1759919722491 .section-1 path,#mermaid-svg-1759919722491 .section-1 circle,#mermaid-svg-1759919722491 .section-1 path{fill:hsl(78.1578947368, 58.4615384615%, 74.5098039216%);}#mermaid-svg-1759919722491 .section-1 text{fill:black;}#mermaid-svg-1759919722491 .node-icon-1{font-size:40px;color:black;}#mermaid-svg-1759919722491 .section-edge-1{stroke:hsl(78.1578947368, 58.4615384615%, 74.5098039216%);}#mermaid-svg-1759919722491 .edge-depth-1{stroke-width:11;}#mermaid-svg-1759919722491 .section-1 line{stroke:hsl(258.1578947368, 58.4615384615%, 74.5098039216%);stroke-width:3;}#mermaid-svg-1759919722491 .lineWrapper line{stroke:black;}#mermaid-svg-1759919722491 .disabled,#mermaid-svg-1759919722491 .disabled circle,#mermaid-svg-1759919722491 .disabled text{fill:lightgray;}#mermaid-svg-1759919722491 .disabled text{fill:#efefef;}#mermaid-svg-1759919722491 .section-2 rect,#mermaid-svg-1759919722491 .section-2 path,#mermaid-svg-1759919722491 .section-2 circle,#mermaid-svg-1759919722491 .section-2 path{fill:hsl(108.1578947368, 58.4615384615%, 64.5098039216%);}#mermaid-svg-1759919722491 .section-2 text{fill:black;}#mermaid-svg-1759919722491 .node-icon-2{font-size:40px;color:black;}#mermaid-svg-1759919722491 .section-edge-2{stroke:hsl(108.1578947368, 58.4615384615%, 64.5098039216%);}#mermaid-svg-1759919722491 .edge-depth-2{stroke-width:8;}#mermaid-svg-1759919722491 .section-2 line{stroke:hsl(288.1578947368, 58.4615384615%, 64.5098039216%);stroke-width:3;}#mermaid-svg-1759919722491 .lineWrapper line{stroke:black;}#mermaid-svg-1759919722491 .disabled,#mermaid-svg-1759919722491 .disabled circle,#mermaid-svg-1759919722491 .disabled text{fill:lightgray;}#mermaid-svg-1759919722491 .disabled text{fill:#efefef;}#mermaid-svg-1759919722491 .section-3 rect,#mermaid-svg-1759919722491 .section-3 path,#mermaid-svg-1759919722491 .section-3 circle,#mermaid-svg-1759919722491 .section-3 path{fill:hsl(138.1578947368, 58.4615384615%, 64.5098039216%);}#mermaid-svg-1759919722491 .section-3 text{fill:black;}#mermaid-svg-1759919722491 .node-icon-3{font-size:40px;color:black;}#mermaid-svg-1759919722491 .section-edge-3{stroke:hsl(138.1578947368, 58.4615384615%, 64.5098039216%);}#mermaid-svg-1759919722491 .edge-depth-3{stroke-width:5;}#mermaid-svg-1759919722491 .section-3 line{stroke:hsl(318.1578947368, 58.4615384615%, 64.5098039216%);stroke-width:3;}#mermaid-svg-1759919722491 .lineWrapper line{stroke:black;}#mermaid-svg-1759919722491 .disabled,#mermaid-svg-1759919722491 .disabled circle,#mermaid-svg-1759919722491 .disabled text{fill:lightgray;}#mermaid-svg-1759919722491 .disabled text{fill:#efefef;}#mermaid-svg-1759919722491 .section-4 rect,#mermaid-svg-1759919722491 .section-4 path,#mermaid-svg-1759919722491 .section-4 circle,#mermaid-svg-1759919722491 .section-4 path{fill:hsl(168.1578947368, 58.4615384615%, 64.5098039216%);}#mermaid-svg-1759919722491 .section-4 text{fill:black;}#mermaid-svg-1759919722491 .node-icon-4{font-size:40px;color:black;}#mermaid-svg-1759919722491 .section-edge-4{stroke:hsl(168.1578947368, 58.4615384615%, 64.5098039216%);}#mermaid-svg-1759919722491 .edge-depth-4{stroke-width:2;}#mermaid-svg-1759919722491 .section-4 line{stroke:hsl(348.1578947368, 58.4615384615%, 64.5098039216%);stroke-width:3;}#mermaid-svg-1759919722491 .lineWrapper line{stroke:black;}#mermaid-svg-1759919722491 .disabled,#mermaid-svg-1759919722491 .disabled circle,#mermaid-svg-1759919722491 .disabled text{fill:lightgray;}#mermaid-svg-1759919722491 .disabled text{fill:#efefef;}#mermaid-svg-1759919722491 .section-5 rect,#mermaid-svg-1759919722491 .section-5 path,#mermaid-svg-1759919722491 .section-5 circle,#mermaid-svg-1759919722491 .section-5 path{fill:hsl(198.1578947368, 58.4615384615%, 64.5098039216%);}#mermaid-svg-1759919722491 .section-5 text{fill:black;}#mermaid-svg-1759919722491 .node-icon-5{font-size:40px;color:black;}#mermaid-svg-1759919722491 .section-edge-5{stroke:hsl(198.1578947368, 58.4615384615%, 64.5098039216%);}#mermaid-svg-1759919722491 .edge-depth-5{stroke-width:-1;}#mermaid-svg-1759919722491 .section-5 line{stroke:hsl(18.1578947368, 58.4615384615%, 64.5098039216%);stroke-width:3;}#mermaid-svg-1759919722491 .lineWrapper line{stroke:black;}#mermaid-svg-1759919722491 .disabled,#mermaid-svg-1759919722491 .disabled circle,#mermaid-svg-1759919722491 .disabled text{fill:lightgray;}#mermaid-svg-1759919722491 .disabled text{fill:#efefef;}#mermaid-svg-1759919722491 .section-6 rect,#mermaid-svg-1759919722491 .section-6 path,#mermaid-svg-1759919722491 .section-6 circle,#mermaid-svg-1759919722491 .section-6 path{fill:hsl(228.1578947368, 58.4615384615%, 64.5098039216%);}#mermaid-svg-1759919722491 .section-6 text{fill:black;}#mermaid-svg-1759919722491 .node-icon-6{font-size:40px;color:black;}#mermaid-svg-1759919722491 .section-edge-6{stroke:hsl(228.1578947368, 58.4615384615%, 64.5098039216%);}#mermaid-svg-1759919722491 .edge-depth-6{stroke-width:-4;}#mermaid-svg-1759919722491 .section-6 line{stroke:hsl(48.1578947368, 58.4615384615%, 64.5098039216%);stroke-width:3;}#mermaid-svg-1759919722491 .lineWrapper line{stroke:black;}#mermaid-svg-1759919722491 .disabled,#mermaid-svg-1759919722491 .disabled circle,#mermaid-svg-1759919722491 .disabled text{fill:lightgray;}#mermaid-svg-1759919722491 .disabled text{fill:#efefef;}#mermaid-svg-1759919722491 .section-7 rect,#mermaid-svg-1759919722491 .section-7 path,#mermaid-svg-1759919722491 .section-7 circle,#mermaid-svg-1759919722491 .section-7 path{fill:hsl(288.1578947368, 58.4615384615%, 64.5098039216%);}#mermaid-svg-1759919722491 .section-7 text{fill:black;}#mermaid-svg-1759919722491 .node-icon-7{font-size:40px;color:black;}#mermaid-svg-1759919722491 .section-edge-7{stroke:hsl(288.1578947368, 58.4615384615%, 64.5098039216%);}#mermaid-svg-1759919722491 .edge-depth-7{stroke-width:-7;}#mermaid-svg-1759919722491 .section-7 line{stroke:hsl(108.1578947368, 58.4615384615%, 64.5098039216%);stroke-width:3;}#mermaid-svg-1759919722491 .lineWrapper line{stroke:black;}#mermaid-svg-1759919722491 .disabled,#mermaid-svg-1759919722491 .disabled circle,#mermaid-svg-1759919722491 .disabled text{fill:lightgray;}#mermaid-svg-1759919722491 .disabled text{fill:#efefef;}#mermaid-svg-1759919722491 .section-8 rect,#mermaid-svg-1759919722491 .section-8 path,#mermaid-svg-1759919722491 .section-8 circle,#mermaid-svg-1759919722491 .section-8 path{fill:hsl(348.1578947368, 58.4615384615%, 64.5098039216%);}#mermaid-svg-1759919722491 .section-8 text{fill:black;}#mermaid-svg-1759919722491 .node-icon-8{font-size:40px;color:black;}#mermaid-svg-1759919722491 .section-edge-8{stroke:hsl(348.1578947368, 58.4615384615%, 64.5098039216%);}#mermaid-svg-1759919722491 .edge-depth-8{stroke-width:-10;}#mermaid-svg-1759919722491 .section-8 line{stroke:hsl(168.1578947368, 58.4615384615%, 64.5098039216%);stroke-width:3;}#mermaid-svg-1759919722491 .lineWrapper line{stroke:black;}#mermaid-svg-1759919722491 .disabled,#mermaid-svg-1759919722491 .disabled circle,#mermaid-svg-1759919722491 .disabled text{fill:lightgray;}#mermaid-svg-1759919722491 .disabled text{fill:#efefef;}#mermaid-svg-1759919722491 .section-9 rect,#mermaid-svg-1759919722491 .section-9 path,#mermaid-svg-1759919722491 .section-9 circle,#mermaid-svg-1759919722491 .section-9 path{fill:hsl(18.1578947368, 58.4615384615%, 64.5098039216%);}#mermaid-svg-1759919722491 .section-9 text{fill:black;}#mermaid-svg-1759919722491 .node-icon-9{font-size:40px;color:black;}#mermaid-svg-1759919722491 .section-edge-9{stroke:hsl(18.1578947368, 58.4615384615%, 64.5098039216%);}#mermaid-svg-1759919722491 .edge-depth-9{stroke-width:-13;}#mermaid-svg-1759919722491 .section-9 line{stroke:hsl(198.1578947368, 58.4615384615%, 64.5098039216%);stroke-width:3;}#mermaid-svg-1759919722491 .lineWrapper line{stroke:black;}#mermaid-svg-1759919722491 .disabled,#mermaid-svg-1759919722491 .disabled circle,#mermaid-svg-1759919722491 .disabled text{fill:lightgray;}#mermaid-svg-1759919722491 .disabled text{fill:#efefef;}#mermaid-svg-1759919722491 .section-10 rect,#mermaid-svg-1759919722491 .section-10 path,#mermaid-svg-1759919722491 .section-10 circle,#mermaid-svg-1759919722491 .section-10 path{fill:hsl(48.1578947368, 58.4615384615%, 64.5098039216%);}#mermaid-svg-1759919722491 .section-10 text{fill:black;}#mermaid-svg-1759919722491 .node-icon-10{font-size:40px;color:black;}#mermaid-svg-1759919722491 .section-edge-10{stroke:hsl(48.1578947368, 58.4615384615%, 64.5098039216%);}#mermaid-svg-1759919722491 .edge-depth-10{stroke-width:-16;}#mermaid-svg-1759919722491 .section-10 line{stroke:hsl(228.1578947368, 58.4615384615%, 64.5098039216%);stroke-width:3;}#mermaid-svg-1759919722491 .lineWrapper line{stroke:black;}#mermaid-svg-1759919722491 .disabled,#mermaid-svg-1759919722491 .disabled circle,#mermaid-svg-1759919722491 .disabled text{fill:lightgray;}#mermaid-svg-1759919722491 .disabled text{fill:#efefef;}#mermaid-svg-1759919722491 .section-root rect,#mermaid-svg-1759919722491 .section-root path,#mermaid-svg-1759919722491 .section-root circle{fill:hsl(78.1578947368, 58.4615384615%, 49.5098039216%);}#mermaid-svg-1759919722491 .section-root text{fill:#ffffff;}#mermaid-svg-1759919722491 .icon-container{height:100%;display:flex;justify-content:center;align-items:center;}#mermaid-svg-1759919722491 .edge{fill:none;}#mermaid-svg-1759919722491 .eventWrapper{filter:brightness(120%);}#mermaid-svg-1759919722491 :root{--mermaid-font-family:"trebuchet ms",verdana,arial,sans-serif;}</style><g/><g/><defs><marker id="arrowhead" refX="5" refY="2" markerWidth="6" markerHeight="4" orient="auto"><path d="M 0,0 V 4 L6,2 Z"/></marker></defs><g transform="translate(200, 50)"><g class="timeline-node section--1"><g><path id="node-undefined" class="node-bkg node-undefined" d="M0 80.39999847412109 v-75.39999847412109 q0,-5 5,-5 h380 q5,0 5,5 v80.39999847412109 H0 Z"/><line class="node-line--1" x1="0" y1="85.39999847412109" x2="390" y2="85.39999847412109"/></g><g transform="translate(195, 10)"><text dy="1em" alignment-baseline="middle" dominant-baseline="middle" text-anchor="middle"><tspan x="0" dy="1em">Attack   Phase</tspan></text></g></g></g><g class="taskWrapper" transform="translate(200, 185.3999984741211)"><g class="timeline-node section--1"><g><path id="node-undefined" class="node-bkg node-undefined" d="M0 62.8 v-57.8 q0,-5 5,-5 h180 q5,0 5,5 v62.8 H0 Z"/><line class="node-line--1" x1="0" y1="67.8" x2="190" y2="67.8"/></g><g transform="translate(95, 10)"><text dy="1em" alignment-baseline="middle" dominant-baseline="middle" text-anchor="middle"><tspan x="0" dy="1em">Late   August   2025</tspan></text></g></g></g><g class="lineWrapper"><line x1="295" y1="253.19999847412112" x2="295" y2="779.9999893188476" stroke-width="2" stroke="black" marker-end="url(#arrowhead)" stroke-dasharray="5,5"/></g><g class="eventWrapper" transform="translate(200, 385.3999984741211)"><g class="timeline-node section--1"><g><path id="node-undefined" class="node-bkg node-undefined" d="M0 45 v-40 q0,-5 5,-5 h180 q5,0 5,5 v45 H0 Z"/><line class="node-line--1" x1="0" y1="50" x2="190" y2="50"/></g><g transform="translate(95, 10)"><text dy="1em" alignment-baseline="middle" dominant-baseline="middle" text-anchor="middle"><tspan x="0" dy="1em">Initial   Compromise</tspan></text></g></g></g><g class="eventWrapper" transform="translate(200, 445.3999984741211)"><g class="timeline-node section--1"><g><path id="node-undefined" class="node-bkg node-undefined" d="M0 77.99999694824218 v-72.99999694824218 q0,-5 5,-5 h180 q5,0 5,5 v77.99999694824218 H0 Z"/><line class="node-line--1" x1="0" y1="82.99999694824218" x2="190" y2="82.99999694824218"/></g><g transform="translate(95, 10)"><text dy="1em" alignment-baseline="middle" dominant-baseline="middle" text-anchor="middle"><tspan x="0" dy="1em">Undetected</tspan><tspan x="0" dy="1.1em">intrusion   via   supply</tspan><tspan x="0" dy="1.1em">chain</tspan></text></g></g></g><g class="eventWrapper" transform="translate(200, 538.3999954223633)"><g class="timeline-node section--1"><g><path id="node-undefined" class="node-bkg node-undefined" d="M0 60.39999847412109 v-55.39999847412109 q0,-5 5,-5 h180 q5,0 5,5 v60.39999847412109 H0 Z"/><line class="node-line--1" x1="0" y1="65.39999847412109" x2="190" y2="65.39999847412109"/></g><g transform="translate(95, 10)"><text dy="1em" alignment-baseline="middle" dominant-baseline="middle" text-anchor="middle"><tspan x="0" dy="1em">Privileged   access   to</tspan><tspan x="0" dy="1.1em">IT/OT   systems</tspan></text></g></g></g><g class="taskWrapper" transform="translate(400, 185.3999984741211)"><g class="timeline-node section--1"><g><path id="node-undefined" class="node-bkg node-undefined" d="M0 62.8 v-57.8 q0,-5 5,-5 h180 q5,0 5,5 v62.8 H0 Z"/><line class="node-line--1" x1="0" y1="67.8" x2="190" y2="67.8"/></g><g transform="translate(95, 10)"><text dy="1em" alignment-baseline="middle" dominant-baseline="middle" text-anchor="middle"><tspan x="0" dy="1em">2-3   September   2025</tspan></text></g></g></g><g class="lineWrapper"><line x1="495" y1="253.19999847412112" x2="495" y2="779.9999893188476" stroke-width="2" stroke="black" marker-end="url(#arrowhead)" stroke-dasharray="5,5"/></g><g class="eventWrapper" transform="translate(400, 385.3999984741211)"><g class="timeline-node section--1"><g><path id="node-undefined" class="node-bkg node-undefined" d="M0 60.39999847412109 v-55.39999847412109 q0,-5 5,-5 h180 q5,0 5,5 v60.39999847412109 H0 Z"/><line class="node-line--1" x1="0" y1="65.39999847412109" x2="190" y2="65.39999847412109"/></g><g transform="translate(95, 10)"><text dy="1em" alignment-baseline="middle" dominant-baseline="middle" text-anchor="middle"><tspan x="0" dy="1em">Ransomware</tspan><tspan x="0" dy="1.1em">Deployed</tspan></text></g></g></g><g class="eventWrapper" transform="translate(400, 460.7999969482422)"><g class="timeline-node section--1"><g><path id="node-undefined" class="node-bkg node-undefined" d="M0 60.39999847412109 v-55.39999847412109 q0,-5 5,-5 h180 q5,0 5,5 v60.39999847412109 H0 Z"/><line class="node-line--1" x1="0" y1="65.39999847412109" x2="190" y2="65.39999847412109"/></g><g transform="translate(95, 10)"><text dy="1em" alignment-baseline="middle" dominant-baseline="middle" text-anchor="middle"><tspan x="0" dy="1em">LockBit/ALPHV</tspan><tspan x="0" dy="1.1em">variant   triggered</tspan></text></g></g></g><g class="eventWrapper" transform="translate(400, 536.1999954223633)"><g class="timeline-node section--1"><g><path id="node-undefined" class="node-bkg node-undefined" d="M0 77.99999694824218 v-72.99999694824218 q0,-5 5,-5 h180 q5,0 5,5 v77.99999694824218 H0 Z"/><line class="node-line--1" x1="0" y1="82.99999694824218" x2="190" y2="82.99999694824218"/></g><g transform="translate(95, 10)"><text dy="1em" alignment-baseline="middle" dominant-baseline="middle" text-anchor="middle"><tspan x="0" dy="1em">Production   &amp;</tspan><tspan x="0" dy="1.1em">logistics   servers</tspan><tspan x="0" dy="1.1em">encrypted</tspan></text></g></g></g><g transform="translate(600, 50)"><g class="timeline-node section-0"><g><path id="node-undefined" class="node-bkg node-undefined" d="M0 80.39999847412109 v-75.39999847412109 q0,-5 5,-5 h580 q5,0 5,5 v80.39999847412109 H0 Z"/><line class="node-line-0" x1="0" y1="85.39999847412109" x2="590" y2="85.39999847412109"/></g><g transform="translate(295, 10)"><text dy="1em" alignment-baseline="middle" dominant-baseline="middle" text-anchor="middle"><tspan x="0" dy="1em">Crisis   Response</tspan></text></g></g></g><g class="taskWrapper" transform="translate(600, 185.3999984741211)"><g class="timeline-node section-0"><g><path id="node-undefined" class="node-bkg node-undefined" d="M0 62.8 v-57.8 q0,-5 5,-5 h180 q5,0 5,5 v62.8 H0 Z"/><line class="node-line-0" x1="0" y1="67.8" x2="190" y2="67.8"/></g><g transform="translate(95, 10)"><text dy="1em" alignment-baseline="middle" dominant-baseline="middle" text-anchor="middle"><tspan x="0" dy="1em">4   September   2025</tspan></text></g></g></g><g class="lineWrapper"><line x1="695" y1="253.19999847412112" x2="695" y2="779.9999893188476" stroke-width="2" stroke="black" marker-end="url(#arrowhead)" stroke-dasharray="5,5"/></g><g class="eventWrapper" transform="translate(600, 385.3999984741211)"><g class="timeline-node section-0"><g><path id="node-undefined" class="node-bkg node-undefined" d="M0 60.39999847412109 v-55.39999847412109 q0,-5 5,-5 h180 q5,0 5,5 v60.39999847412109 H0 Z"/><line class="node-line-0" x1="0" y1="65.39999847412109" x2="190" y2="65.39999847412109"/></g><g transform="translate(95, 10)"><text dy="1em" alignment-baseline="middle" dominant-baseline="middle" text-anchor="middle"><tspan x="0" dy="1em">Production</tspan><tspan x="0" dy="1.1em">Shutdown</tspan></text></g></g></g><g class="eventWrapper" transform="translate(600, 460.7999969482422)"><g class="timeline-node section-0"><g><path id="node-undefined" class="node-bkg node-undefined" d="M0 60.39999847412109 v-55.39999847412109 q0,-5 5,-5 h180 q5,0 5,5 v60.39999847412109 H0 Z"/><line class="node-line-0" x1="0" y1="65.39999847412109" x2="190" y2="65.39999847412109"/></g><g transform="translate(95, 10)"><text dy="1em" alignment-baseline="middle" dominant-baseline="middle" text-anchor="middle"><tspan x="0" dy="1em">All   UK   &amp;   overseas</tspan><tspan x="0" dy="1.1em">plants   halted</tspan></text></g></g></g><g class="eventWrapper" transform="translate(600, 536.1999954223633)"><g class="timeline-node section-0"><g><path id="node-undefined" class="node-bkg node-undefined" d="M0 60.39999847412109 v-55.39999847412109 q0,-5 5,-5 h180 q5,0 5,5 v60.39999847412109 H0 Z"/><line class="node-line-0" x1="0" y1="65.39999847412109" x2="190" y2="65.39999847412109"/></g><g transform="translate(95, 10)"><text dy="1em" alignment-baseline="middle" dominant-baseline="middle" text-anchor="middle"><tspan x="0" dy="1em">~1,000   vehicles/day</tspan><tspan x="0" dy="1.1em">stopped</tspan></text></g></g></g><g class="taskWrapper" transform="translate(800, 185.3999984741211)"><g class="timeline-node section-0"><g><path id="node-undefined" class="node-bkg node-undefined" d="M0 62.8 v-57.8 q0,-5 5,-5 h180 q5,0 5,5 v62.8 H0 Z"/><line class="node-line-0" x1="0" y1="67.8" x2="190" y2="67.8"/></g><g transform="translate(95, 10)"><text dy="1em" alignment-baseline="middle" dominant-baseline="middle" text-anchor="middle"><tspan x="0" dy="1em">5-7   September   2025</tspan></text></g></g></g><g class="lineWrapper"><line x1="895" y1="253.19999847412112" x2="895" y2="779.9999893188476" stroke-width="2" stroke="black" marker-end="url(#arrowhead)" stroke-dasharray="5,5"/></g><g class="eventWrapper" transform="translate(800, 385.3999984741211)"><g class="timeline-node section-0"><g><path id="node-undefined" class="node-bkg node-undefined" d="M0 60.39999847412109 v-55.39999847412109 q0,-5 5,-5 h180 q5,0 5,5 v60.39999847412109 H0 Z"/><line class="node-line-0" x1="0" y1="65.39999847412109" x2="190" y2="65.39999847412109"/></g><g transform="translate(95, 10)"><text dy="1em" alignment-baseline="middle" dominant-baseline="middle" text-anchor="middle"><tspan x="0" dy="1em">Crisis   Management</tspan><tspan x="0" dy="1.1em">Activated</tspan></text></g></g></g><g class="eventWrapper" transform="translate(800, 460.7999969482422)"><g class="timeline-node section-0"><g><path id="node-undefined" class="node-bkg node-undefined" d="M0 60.39999847412109 v-55.39999847412109 q0,-5 5,-5 h180 q5,0 5,5 v60.39999847412109 H0 Z"/><line class="node-line-0" x1="0" y1="65.39999847412109" x2="190" y2="65.39999847412109"/></g><g transform="translate(95, 10)"><text dy="1em" alignment-baseline="middle" dominant-baseline="middle" text-anchor="middle"><tspan x="0" dy="1em">IT   systems</tspan><tspan x="0" dy="1.1em">disconnected</tspan></text></g></g></g><g class="eventWrapper" transform="translate(800, 536.1999954223633)"><g class="timeline-node section-0"><g><path id="node-undefined" class="node-bkg node-undefined" d="M0 60.39999847412109 v-55.39999847412109 q0,-5 5,-5 h180 q5,0 5,5 v60.39999847412109 H0 Z"/><line class="node-line-0" x1="0" y1="65.39999847412109" x2="190" y2="65.39999847412109"/></g><g transform="translate(95, 10)"><text dy="1em" alignment-baseline="middle" dominant-baseline="middle" text-anchor="middle"><tspan x="0" dy="1em">Business   continuity</tspan><tspan x="0" dy="1.1em">protocol   initiated</tspan></text></g></g></g><g class="taskWrapper" transform="translate(1000, 185.3999984741211)"><g class="timeline-node section-0"><g><path id="node-undefined" class="node-bkg node-undefined" d="M0 62.8 v-57.8 q0,-5 5,-5 h180 q5,0 5,5 v62.8 H0 Z"/><line class="node-line-0" x1="0" y1="67.8" x2="190" y2="67.8"/></g><g transform="translate(95, 10)"><text dy="1em" alignment-baseline="middle" dominant-baseline="middle" text-anchor="middle"><tspan x="0" dy="1em">8-10   September</tspan><tspan x="0" dy="1.1em">2025</tspan></text></g></g></g><g class="lineWrapper"><line x1="1095" y1="253.19999847412112" x2="1095" y2="779.9999893188476" stroke-width="2" stroke="black" marker-end="url(#arrowhead)" stroke-dasharray="5,5"/></g><g class="eventWrapper" transform="translate(1000, 385.3999984741211)"><g class="timeline-node section-0"><g><path id="node-undefined" class="node-bkg node-undefined" d="M0 45 v-40 q0,-5 5,-5 h180 q5,0 5,5 v45 H0 Z"/><line class="node-line-0" x1="0" y1="50" x2="190" y2="50"/></g><g transform="translate(95, 10)"><text dy="1em" alignment-baseline="middle" dominant-baseline="middle" text-anchor="middle"><tspan x="0" dy="1em">Public   Disclosure</tspan></text></g></g></g><g class="eventWrapper" transform="translate(1000, 445.3999984741211)"><g class="timeline-node section-0"><g><path id="node-undefined" class="node-bkg node-undefined" d="M0 60.39999847412109 v-55.39999847412109 q0,-5 5,-5 h180 q5,0 5,5 v60.39999847412109 H0 Z"/><line class="node-line-0" x1="0" y1="65.39999847412109" x2="190" y2="65.39999847412109"/></g><g transform="translate(95, 10)"><text dy="1em" alignment-baseline="middle" dominant-baseline="middle" text-anchor="middle"><tspan x="0" dy="1em">Media   confirms</tspan><tspan x="0" dy="1.1em">attack</tspan></text></g></g></g><g class="eventWrapper" transform="translate(1000, 520.7999969482422)"><g class="timeline-node section-0"><g><path id="node-undefined" class="node-bkg node-undefined" d="M0 60.39999847412109 v-55.39999847412109 q0,-5 5,-5 h180 q5,0 5,5 v60.39999847412109 H0 Z"/><line class="node-line-0" x1="0" y1="65.39999847412109" x2="190" y2="65.39999847412109"/></g><g transform="translate(95, 10)"><text dy="1em" alignment-baseline="middle" dominant-baseline="middle" text-anchor="middle"><tspan x="0" dy="1em">Government   &amp;   NCSC</tspan><tspan x="0" dy="1.1em">coordination   begins</tspan></text></g></g></g><g transform="translate(1200, 50)"><g class="timeline-node section-1"><g><path id="node-undefined" class="node-bkg node-undefined" d="M0 80.39999847412109 v-75.39999847412109 q0,-5 5,-5 h780 q5,0 5,5 v80.39999847412109 H0 Z"/><line class="node-line-1" x1="0" y1="85.39999847412109" x2="790" y2="85.39999847412109"/></g><g transform="translate(395, 10)"><text dy="1em" alignment-baseline="middle" dominant-baseline="middle" text-anchor="middle"><tspan x="0" dy="1em">Government   Intervention</tspan></text></g></g></g><g class="taskWrapper" transform="translate(1200, 185.3999984741211)"><g class="timeline-node section-1"><g><path id="node-undefined" class="node-bkg node-undefined" d="M0 62.8 v-57.8 q0,-5 5,-5 h180 q5,0 5,5 v62.8 H0 Z"/><line class="node-line-1" x1="0" y1="67.8" x2="190" y2="67.8"/></g><g transform="translate(95, 10)"><text dy="1em" alignment-baseline="middle" dominant-baseline="middle" text-anchor="middle"><tspan x="0" dy="1em">Mid   September   2025</tspan></text></g></g></g><g class="lineWrapper"><line x1="1295" y1="253.19999847412112" x2="1295" y2="779.9999893188476" stroke-width="2" stroke="black" marker-end="url(#arrowhead)" stroke-dasharray="5,5"/></g><g class="eventWrapper" transform="translate(1200, 385.3999984741211)"><g class="timeline-node section-1"><g><path id="node-undefined" class="node-bkg node-undefined" d="M0 45 v-40 q0,-5 5,-5 h180 q5,0 5,5 v45 H0 Z"/><line class="node-line-1" x1="0" y1="50" x2="190" y2="50"/></g><g transform="translate(95, 10)"><text dy="1em" alignment-baseline="middle" dominant-baseline="middle" text-anchor="middle"><tspan x="0" dy="1em">Supply   Chain   Shock</tspan></text></g></g></g><g class="eventWrapper" transform="translate(1200, 445.3999984741211)"><g class="timeline-node section-1"><g><path id="node-undefined" class="node-bkg node-undefined" d="M0 60.39999847412109 v-55.39999847412109 q0,-5 5,-5 h180 q5,0 5,5 v60.39999847412109 H0 Z"/><line class="node-line-1" x1="0" y1="65.39999847412109" x2="190" y2="65.39999847412109"/></g><g transform="translate(95, 10)"><text dy="1em" alignment-baseline="middle" dominant-baseline="middle" text-anchor="middle"><tspan x="0" dy="1em">104,000+   supplier</tspan><tspan x="0" dy="1.1em">jobs   affected</tspan></text></g></g></g><g class="eventWrapper" transform="translate(1200, 520.7999969482422)"><g class="timeline-node section-1"><g><path id="node-undefined" class="node-bkg node-undefined" d="M0 60.39999847412109 v-55.39999847412109 q0,-5 5,-5 h180 q5,0 5,5 v60.39999847412109 H0 Z"/><line class="node-line-1" x1="0" y1="65.39999847412109" x2="190" y2="65.39999847412109"/></g><g transform="translate(95, 10)"><text dy="1em" alignment-baseline="middle" dominant-baseline="middle" text-anchor="middle"><tspan x="0" dy="1em">Tier-2/3   layoffs</tspan><tspan x="0" dy="1.1em">begin</tspan></text></g></g></g><g class="taskWrapper" transform="translate(1400, 185.3999984741211)"><g class="timeline-node section-1"><g><path id="node-undefined" class="node-bkg node-undefined" d="M0 62.8 v-57.8 q0,-5 5,-5 h180 q5,0 5,5 v62.8 H0 Z"/><line class="node-line-1" x1="0" y1="67.8" x2="190" y2="67.8"/></g><g transform="translate(95, 10)"><text dy="1em" alignment-baseline="middle" dominant-baseline="middle" text-anchor="middle"><tspan x="0" dy="1em">18-20   September</tspan><tspan x="0" dy="1.1em">2025</tspan></text></g></g></g><g class="lineWrapper"><line x1="1495" y1="253.19999847412112" x2="1495" y2="779.9999893188476" stroke-width="2" stroke="black" marker-end="url(#arrowhead)" stroke-dasharray="5,5"/></g><g class="eventWrapper" transform="translate(1400, 385.3999984741211)"><g class="timeline-node section-1"><g><path id="node-undefined" class="node-bkg node-undefined" d="M0 45 v-40 q0,-5 5,-5 h180 q5,0 5,5 v45 H0 Z"/><line class="node-line-1" x1="0" y1="50" x2="190" y2="50"/></g><g transform="translate(95, 10)"><text dy="1em" alignment-baseline="middle" dominant-baseline="middle" text-anchor="middle"><tspan x="0" dy="1em">Ransom   Demand</tspan></text></g></g></g><g class="eventWrapper" transform="translate(1400, 445.3999984741211)"><g class="timeline-node section-1"><g><path id="node-undefined" class="node-bkg node-undefined" d="M0 60.39999847412109 v-55.39999847412109 q0,-5 5,-5 h180 q5,0 5,5 v60.39999847412109 H0 Z"/><line class="node-line-1" x1="0" y1="65.39999847412109" x2="190" y2="65.39999847412109"/></g><g transform="translate(95, 10)"><text dy="1em" alignment-baseline="middle" dominant-baseline="middle" text-anchor="middle"><tspan x="0" dy="1em">Significant   payment</tspan><tspan x="0" dy="1.1em">demanded</tspan></text></g></g></g><g class="eventWrapper" transform="translate(1400, 520.7999969482422)"><g class="timeline-node section-1"><g><path id="node-undefined" class="node-bkg node-undefined" d="M0 60.39999847412109 v-55.39999847412109 q0,-5 5,-5 h180 q5,0 5,5 v60.39999847412109 H0 Z"/><line class="node-line-1" x1="0" y1="65.39999847412109" x2="190" y2="65.39999847412109"/></g><g transform="translate(95, 10)"><text dy="1em" alignment-baseline="middle" dominant-baseline="middle" text-anchor="middle"><tspan x="0" dy="1em">Employee   data</tspan><tspan x="0" dy="1.1em">samples   leaked</tspan></text></g></g></g><g class="eventWrapper" transform="translate(1400, 596.1999954223633)"><g class="timeline-node section-1"><g><path id="node-undefined" class="node-bkg node-undefined" d="M0 45 v-40 q0,-5 5,-5 h180 q5,0 5,5 v45 H0 Z"/><line class="node-line-1" x1="0" y1="50" x2="190" y2="50"/></g><g transform="translate(95, 10)"><text dy="1em" alignment-baseline="middle" dominant-baseline="middle" text-anchor="middle"><tspan x="0" dy="1em">JLR   refuses   payment</tspan></text></g></g></g><g class="taskWrapper" transform="translate(1600, 185.3999984741211)"><g class="timeline-node section-1"><g><path id="node-undefined" class="node-bkg node-undefined" d="M0 62.8 v-57.8 q0,-5 5,-5 h180 q5,0 5,5 v62.8 H0 Z"/><line class="node-line-1" x1="0" y1="67.8" x2="190" y2="67.8"/></g><g transform="translate(95, 10)"><text dy="1em" alignment-baseline="middle" dominant-baseline="middle" text-anchor="middle"><tspan x="0" dy="1em">Late   September</tspan><tspan x="0" dy="1.1em">2025</tspan></text></g></g></g><g class="lineWrapper"><line x1="1695" y1="253.19999847412112" x2="1695" y2="779.9999893188476" stroke-width="2" stroke="black" marker-end="url(#arrowhead)" stroke-dasharray="5,5"/></g><g class="eventWrapper" transform="translate(1600, 385.3999984741211)"><g class="timeline-node section-1"><g><path id="node-undefined" class="node-bkg node-undefined" d="M0 60.39999847412109 v-55.39999847412109 q0,-5 5,-5 h180 q5,0 5,5 v60.39999847412109 H0 Z"/><line class="node-line-1" x1="0" y1="65.39999847412109" x2="190" y2="65.39999847412109"/></g><g transform="translate(95, 10)"><text dy="1em" alignment-baseline="middle" dominant-baseline="middle" text-anchor="middle"><tspan x="0" dy="1em">System   Restoration</tspan><tspan x="0" dy="1.1em">Begins</tspan></text></g></g></g><g class="eventWrapper" transform="translate(1600, 460.7999969482422)"><g class="timeline-node section-1"><g><path id="node-undefined" class="node-bkg node-undefined" d="M0 60.39999847412109 v-55.39999847412109 q0,-5 5,-5 h180 q5,0 5,5 v60.39999847412109 H0 Z"/><line class="node-line-1" x1="0" y1="65.39999847412109" x2="190" y2="65.39999847412109"/></g><g transform="translate(95, 10)"><text dy="1em" alignment-baseline="middle" dominant-baseline="middle" text-anchor="middle"><tspan x="0" dy="1em">NCSC-supervised</tspan><tspan x="0" dy="1.1em">recovery</tspan></text></g></g></g><g class="eventWrapper" transform="translate(1600, 536.1999954223633)"><g class="timeline-node section-1"><g><path id="node-undefined" class="node-bkg node-undefined" d="M0 60.39999847412109 v-55.39999847412109 q0,-5 5,-5 h180 q5,0 5,5 v60.39999847412109 H0 Z"/><line class="node-line-1" x1="0" y1="65.39999847412109" x2="190" y2="65.39999847412109"/></g><g transform="translate(95, 10)"><text dy="1em" alignment-baseline="middle" dominant-baseline="middle" text-anchor="middle"><tspan x="0" dy="1em">Network   testing</tspan><tspan x="0" dy="1.1em">resumes</tspan></text></g></g></g><g class="taskWrapper" transform="translate(1800, 185.3999984741211)"><g class="timeline-node section-1"><g><path id="node-undefined" class="node-bkg node-undefined" d="M0 62.8 v-57.8 q0,-5 5,-5 h180 q5,0 5,5 v62.8 H0 Z"/><line class="node-line-1" x1="0" y1="67.8" x2="190" y2="67.8"/></g><g transform="translate(95, 10)"><text dy="1em" alignment-baseline="middle" dominant-baseline="middle" text-anchor="middle"><tspan x="0" dy="1em">30   September   2025</tspan></text></g></g></g><g class="lineWrapper"><line x1="1895" y1="253.19999847412112" x2="1895" y2="779.9999893188476" stroke-width="2" stroke="black" marker-end="url(#arrowhead)" stroke-dasharray="5,5"/></g><g class="eventWrapper" transform="translate(1800, 385.3999984741211)"><g class="timeline-node section-1"><g><path id="node-undefined" class="node-bkg node-undefined" d="M0 60.39999847412109 v-55.39999847412109 q0,-5 5,-5 h180 q5,0 5,5 v60.39999847412109 H0 Z"/><line class="node-line-1" x1="0" y1="65.39999847412109" x2="190" y2="65.39999847412109"/></g><g transform="translate(95, 10)"><text dy="1em" alignment-baseline="middle" dominant-baseline="middle" text-anchor="middle"><tspan x="0" dy="1em">UKEF   Facility</tspan><tspan x="0" dy="1.1em">Announced</tspan></text></g></g></g><g class="eventWrapper" transform="translate(1800, 460.7999969482422)"><g class="timeline-node section-1"><g><path id="node-undefined" class="node-bkg node-undefined" d="M0 77.99999694824218 v-72.99999694824218 q0,-5 5,-5 h180 q5,0 5,5 v77.99999694824218 H0 Z"/><line class="node-line-1" x1="0" y1="82.99999694824218" x2="190" y2="82.99999694824218"/></g><g transform="translate(95, 10)"><text dy="1em" alignment-baseline="middle" dominant-baseline="middle" text-anchor="middle"><tspan x="0" dy="1em">£1.5   billion</tspan><tspan x="0" dy="1.1em">government-backed</tspan><tspan x="0" dy="1.1em">support</tspan></text></g></g></g><g class="eventWrapper" transform="translate(1800, 553.7999938964844)"><g class="timeline-node section-1"><g><path id="node-undefined" class="node-bkg node-undefined" d="M0 60.39999847412109 v-55.39999847412109 q0,-5 5,-5 h180 q5,0 5,5 v60.39999847412109 H0 Z"/><line class="node-line-1" x1="0" y1="65.39999847412109" x2="190" y2="65.39999847412109"/></g><g transform="translate(95, 10)"><text dy="1em" alignment-baseline="middle" dominant-baseline="middle" text-anchor="middle"><tspan x="0" dy="1em">80%   guarantee   with</tspan><tspan x="0" dy="1.1em">resilience   conditions</tspan></text></g></g></g><g transform="translate(2000, 50)"><g class="timeline-node section-2"><g><path id="node-undefined" class="node-bkg node-undefined" d="M0 80.39999847412109 v-75.39999847412109 q0,-5 5,-5 h780 q5,0 5,5 v80.39999847412109 H0 Z"/><line class="node-line-2" x1="0" y1="85.39999847412109" x2="790" y2="85.39999847412109"/></g><g transform="translate(395, 10)"><text dy="1em" alignment-baseline="middle" dominant-baseline="middle" text-anchor="middle"><tspan x="0" dy="1em">Recovery   Phase</tspan></text></g></g></g><g class="taskWrapper" transform="translate(2000, 185.3999984741211)"><g class="timeline-node section-2"><g><path id="node-undefined" class="node-bkg node-undefined" d="M0 62.8 v-57.8 q0,-5 5,-5 h180 q5,0 5,5 v62.8 H0 Z"/><line class="node-line-2" x1="0" y1="67.8" x2="190" y2="67.8"/></g><g transform="translate(95, 10)"><text dy="1em" alignment-baseline="middle" dominant-baseline="middle" text-anchor="middle"><tspan x="0" dy="1em">Early   October   2025</tspan></text></g></g></g><g class="lineWrapper"><line x1="2095" y1="253.19999847412112" x2="2095" y2="779.9999893188476" stroke-width="2" stroke="black" marker-end="url(#arrowhead)" stroke-dasharray="5,5"/></g><g class="eventWrapper" transform="translate(2000, 385.3999984741211)"><g class="timeline-node section-2"><g><path id="node-undefined" class="node-bkg node-undefined" d="M0 45 v-40 q0,-5 5,-5 h180 q5,0 5,5 v45 H0 Z"/><line class="node-line-2" x1="0" y1="50" x2="190" y2="50"/></g><g transform="translate(95, 10)"><text dy="1em" alignment-baseline="middle" dominant-baseline="middle" text-anchor="middle"><tspan x="0" dy="1em">Production   Restart</tspan></text></g></g></g><g class="eventWrapper" transform="translate(2000, 445.3999984741211)"><g class="timeline-node section-2"><g><path id="node-undefined" class="node-bkg node-undefined" d="M0 60.39999847412109 v-55.39999847412109 q0,-5 5,-5 h180 q5,0 5,5 v60.39999847412109 H0 Z"/><line class="node-line-2" x1="0" y1="65.39999847412109" x2="190" y2="65.39999847412109"/></g><g transform="translate(95, 10)"><text dy="1em" alignment-baseline="middle" dominant-baseline="middle" text-anchor="middle"><tspan x="0" dy="1em">Solihull   &amp;   Halewood</tspan><tspan x="0" dy="1.1em">resume   operations</tspan></text></g></g></g><g class="eventWrapper" transform="translate(2000, 520.7999969482422)"><g class="timeline-node section-2"><g><path id="node-undefined" class="node-bkg node-undefined" d="M0 60.39999847412109 v-55.39999847412109 q0,-5 5,-5 h180 q5,0 5,5 v60.39999847412109 H0 Z"/><line class="node-line-2" x1="0" y1="65.39999847412109" x2="190" y2="65.39999847412109"/></g><g transform="translate(95, 10)"><text dy="1em" alignment-baseline="middle" dominant-baseline="middle" text-anchor="middle"><tspan x="0" dy="1em">Limited   output</tspan><tspan x="0" dy="1.1em">restored</tspan></text></g></g></g><g class="taskWrapper" transform="translate(2200, 185.3999984741211)"><g class="timeline-node section-2"><g><path id="node-undefined" class="node-bkg node-undefined" d="M0 62.8 v-57.8 q0,-5 5,-5 h180 q5,0 5,5 v62.8 H0 Z"/><line class="node-line-2" x1="0" y1="67.8" x2="190" y2="67.8"/></g><g transform="translate(95, 10)"><text dy="1em" alignment-baseline="middle" dominant-baseline="middle" text-anchor="middle"><tspan x="0" dy="1em">Mid   October   2025</tspan></text></g></g></g><g class="lineWrapper"><line x1="2295" y1="253.19999847412112" x2="2295" y2="779.9999893188476" stroke-width="2" stroke="black" marker-end="url(#arrowhead)" stroke-dasharray="5,5"/></g><g class="eventWrapper" transform="translate(2200, 385.3999984741211)"><g class="timeline-node section-2"><g><path id="node-undefined" class="node-bkg node-undefined" d="M0 45 v-40 q0,-5 5,-5 h180 q5,0 5,5 v45 H0 Z"/><line class="node-line-2" x1="0" y1="50" x2="190" y2="50"/></g><g transform="translate(95, 10)"><text dy="1em" alignment-baseline="middle" dominant-baseline="middle" text-anchor="middle"><tspan x="0" dy="1em">Capacity   Restoration</tspan></text></g></g></g><g class="eventWrapper" transform="translate(2200, 445.3999984741211)"><g class="timeline-node section-2"><g><path id="node-undefined" class="node-bkg node-undefined" d="M0 60.39999847412109 v-55.39999847412109 q0,-5 5,-5 h180 q5,0 5,5 v60.39999847412109 H0 Z"/><line class="node-line-2" x1="0" y1="65.39999847412109" x2="190" y2="65.39999847412109"/></g><g transform="translate(95, 10)"><text dy="1em" alignment-baseline="middle" dominant-baseline="middle" text-anchor="middle"><tspan x="0" dy="1em">70-80%   production</tspan><tspan x="0" dy="1.1em">recovered</tspan></text></g></g></g><g class="eventWrapper" transform="translate(2200, 520.7999969482422)"><g class="timeline-node section-2"><g><path id="node-undefined" class="node-bkg node-undefined" d="M0 60.39999847412109 v-55.39999847412109 q0,-5 5,-5 h180 q5,0 5,5 v60.39999847412109 H0 Z"/><line class="node-line-2" x1="0" y1="65.39999847412109" x2="190" y2="65.39999847412109"/></g><g transform="translate(95, 10)"><text dy="1em" alignment-baseline="middle" dominant-baseline="middle" text-anchor="middle"><tspan x="0" dy="1em">Tier-1   suppliers</tspan><tspan x="0" dy="1.1em">re-engaged</tspan></text></g></g></g><g class="taskWrapper" transform="translate(2400, 185.3999984741211)"><g class="timeline-node section-2"><g><path id="node-undefined" class="node-bkg node-undefined" d="M0 62.8 v-57.8 q0,-5 5,-5 h180 q5,0 5,5 v62.8 H0 Z"/><line class="node-line-2" x1="0" y1="67.8" x2="190" y2="67.8"/></g><g transform="translate(95, 10)"><text dy="1em" alignment-baseline="middle" dominant-baseline="middle" text-anchor="middle"><tspan x="0" dy="1em">Late   October   2025</tspan></text></g></g></g><g class="lineWrapper"><line x1="2495" y1="253.19999847412112" x2="2495" y2="779.9999893188476" stroke-width="2" stroke="black" marker-end="url(#arrowhead)" stroke-dasharray="5,5"/></g><g class="eventWrapper" transform="translate(2400, 385.3999984741211)"><g class="timeline-node section-2"><g><path id="node-undefined" class="node-bkg node-undefined" d="M0 60.39999847412109 v-55.39999847412109 q0,-5 5,-5 h180 q5,0 5,5 v60.39999847412109 H0 Z"/><line class="node-line-2" x1="0" y1="65.39999847412109" x2="190" y2="65.39999847412109"/></g><g transform="translate(95, 10)"><text dy="1em" alignment-baseline="middle" dominant-baseline="middle" text-anchor="middle"><tspan x="0" dy="1em">NCSC   Post-Incident</tspan><tspan x="0" dy="1.1em">Review</tspan></text></g></g></g><g class="eventWrapper" transform="translate(2400, 460.7999969482422)"><g class="timeline-node section-2"><g><path id="node-undefined" class="node-bkg node-undefined" d="M0 77.99999694824218 v-72.99999694824218 q0,-5 5,-5 h180 q5,0 5,5 v77.99999694824218 H0 Z"/><line class="node-line-2" x1="0" y1="82.99999694824218" x2="190" y2="82.99999694824218"/></g><g transform="translate(95, 10)"><text dy="1em" alignment-baseline="middle" dominant-baseline="middle" text-anchor="middle"><tspan x="0" dy="1em">Inadequate   IT/OT</tspan><tspan x="0" dy="1.1em">segmentation</tspan><tspan x="0" dy="1.1em">identified</tspan></text></g></g></g><g class="eventWrapper" transform="translate(2400, 553.7999938964844)"><g class="timeline-node section-2"><g><path id="node-undefined" class="node-bkg node-undefined" d="M0 60.39999847412109 v-55.39999847412109 q0,-5 5,-5 h180 q5,0 5,5 v60.39999847412109 H0 Z"/><line class="node-line-2" x1="0" y1="65.39999847412109" x2="190" y2="65.39999847412109"/></g><g transform="translate(95, 10)"><text dy="1em" alignment-baseline="middle" dominant-baseline="middle" text-anchor="middle"><tspan x="0" dy="1em">Weak   vendor</tspan><tspan x="0" dy="1.1em">monitoring   exposed</tspan></text></g></g></g><g class="eventWrapper" transform="translate(2400, 629.1999923706054)"><g class="timeline-node section-2"><g><path id="node-undefined" class="node-bkg node-undefined" d="M0 77.99999694824218 v-72.99999694824218 q0,-5 5,-5 h180 q5,0 5,5 v77.99999694824218 H0 Z"/><line class="node-line-2" x1="0" y1="82.99999694824218" x2="190" y2="82.99999694824218"/></g><g transform="translate(95, 10)"><text dy="1em" alignment-baseline="middle" dominant-baseline="middle" text-anchor="middle"><tspan x="0" dy="1em">Resilience</tspan><tspan x="0" dy="1.1em">recommendations</tspan><tspan x="0" dy="1.1em">issued</tspan></text></g></g></g><g class="taskWrapper" transform="translate(2600, 185.3999984741211)"><g class="timeline-node section-2"><g><path id="node-undefined" class="node-bkg node-undefined" d="M0 62.8 v-57.8 q0,-5 5,-5 h180 q5,0 5,5 v62.8 H0 Z"/><line class="node-line-2" x1="0" y1="67.8" x2="190" y2="67.8"/></g><g transform="translate(95, 10)"><text dy="1em" alignment-baseline="middle" dominant-baseline="middle" text-anchor="middle"><tspan x="0" dy="1em">Q4   2025</tspan></text></g></g></g><g class="lineWrapper"><line x1="2695" y1="253.19999847412112" x2="2695" y2="779.9999893188476" stroke-width="2" stroke="black" marker-end="url(#arrowhead)" stroke-dasharray="5,5"/></g><g class="eventWrapper" transform="translate(2600, 385.3999984741211)"><g class="timeline-node section-2"><g><path id="node-undefined" class="node-bkg node-undefined" d="M0 45 v-40 q0,-5 5,-5 h180 q5,0 5,5 v45 H0 Z"/><line class="node-line-2" x1="0" y1="50" x2="190" y2="50"/></g><g transform="translate(95, 10)"><text dy="1em" alignment-baseline="middle" dominant-baseline="middle" text-anchor="middle"><tspan x="0" dy="1em">Strategic   Overhaul</tspan></text></g></g></g><g class="eventWrapper" transform="translate(2600, 445.3999984741211)"><g class="timeline-node section-2"><g><path id="node-undefined" class="node-bkg node-undefined" d="M0 60.39999847412109 v-55.39999847412109 q0,-5 5,-5 h180 q5,0 5,5 v60.39999847412109 H0 Z"/><line class="node-line-2" x1="0" y1="65.39999847412109" x2="190" y2="65.39999847412109"/></g><g transform="translate(95, 10)"><text dy="1em" alignment-baseline="middle" dominant-baseline="middle" text-anchor="middle"><tspan x="0" dy="1em">New   global   CISO</tspan><tspan x="0" dy="1.1em">appointed</tspan></text></g></g></g><g class="eventWrapper" transform="translate(2600, 520.7999969482422)"><g class="timeline-node section-2"><g><path id="node-undefined" class="node-bkg node-undefined" d="M0 60.39999847412109 v-55.39999847412109 q0,-5 5,-5 h180 q5,0 5,5 v60.39999847412109 H0 Z"/><line class="node-line-2" x1="0" y1="65.39999847412109" x2="190" y2="65.39999847412109"/></g><g transform="translate(95, 10)"><text dy="1em" alignment-baseline="middle" dominant-baseline="middle" text-anchor="middle"><tspan x="0" dy="1em">Cyber   insurance</tspan><tspan x="0" dy="1.1em">procurement</tspan></text></g></g></g><g class="eventWrapper" transform="translate(2600, 596.1999954223633)"><g class="timeline-node section-2"><g><path id="node-undefined" class="node-bkg node-undefined" d="M0 60.39999847412109 v-55.39999847412109 q0,-5 5,-5 h180 q5,0 5,5 v60.39999847412109 H0 Z"/><line class="node-line-2" x1="0" y1="65.39999847412109" x2="190" y2="65.39999847412109"/></g><g transform="translate(95, 10)"><text dy="1em" alignment-baseline="middle" dominant-baseline="middle" text-anchor="middle"><tspan x="0" dy="1em">Supplier   resilience</tspan><tspan x="0" dy="1.1em">mapping   initiated</tspan></text></g></g></g><text x="1145" font-size="4ex" font-weight="bold" y="20">JLR Cyberattack Timeline (August - October 2025)</text><g class="lineWrapper"><line x1="150" y1="303.1999984741211" x2="3040" y2="303.1999984741211" stroke-width="4" stroke="black" marker-end="url(#arrowhead)"/></g></svg>